<svg xmlns="http://www.w3.org/2000/svg" width="157" height="30" viewBox="0 0 157 30" fill="none"><path d="M84.7481 18.502V19.6891H79.8877V23.4582H83.8341V24.6453H79.8877V29.682H78.4287V18.5041H84.7502L84.7481 18.502Z" fill="url(#paint0_linear_450_132)"></path><path d="M87.9736 18.502V29.6799H86.5146V18.502H87.9736Z" fill="url(#paint1_linear_450_132)"></path><path d="M99.2518 29.6799H97.7929L91.9209 20.7787V29.6799H90.4619V18.485H91.9209L97.7929 27.3693V18.485H99.2518V29.6799Z" fill="url(#paint2_linear_450_132)"></path><path d="M108.349 27.1955H103.472L102.573 29.682H101.033L105.075 18.5677H106.759L110.786 29.682H109.246L108.347 27.1955H108.349ZM107.932 26.0083L105.911 20.3632L103.89 26.0083H107.932Z" fill="url(#paint3_linear_450_132)"></path><path d="M121.344 29.6799H119.885L114.013 20.7787V29.6799H112.554V18.485H114.013L119.885 27.3693V18.485H121.344V29.6799Z" fill="url(#paint4_linear_450_132)"></path><path d="M124.023 21.1412C124.515 20.2699 125.185 19.5873 126.036 19.0955C126.886 18.6037 127.83 18.3578 128.867 18.3578C129.904 18.3578 131.15 18.6525 132.06 19.2397C132.97 19.8269 133.632 20.6621 134.049 21.7411H132.3C131.99 21.067 131.543 20.5497 130.96 20.1851C130.376 19.8226 129.679 19.6403 128.867 19.6403C128.054 19.6403 127.384 19.8226 126.765 20.1851C126.144 20.5497 125.658 21.0649 125.306 21.7326C124.954 22.4004 124.776 23.1847 124.776 24.0814C124.776 24.9781 124.952 25.7476 125.306 26.4153C125.658 27.0831 126.146 27.6003 126.765 27.9628C127.384 28.3253 128.086 28.5076 128.867 28.5076C129.647 28.5076 130.376 28.3296 130.96 27.9713C131.543 27.6131 131.988 27.0979 132.3 26.4238H134.049C133.632 27.4922 132.97 28.319 132.06 28.9019C131.15 29.4849 130.086 29.7753 128.867 29.7753C127.647 29.7753 126.886 29.5315 126.036 29.0461C125.185 28.5606 124.513 27.8844 124.023 27.0174C123.531 26.1504 123.285 25.1731 123.285 24.0835C123.285 22.9939 123.531 22.0124 124.023 21.1412Z" fill="url(#paint5_linear_450_132)"></path><path d="M137.677 18.502V29.6799H136.218V18.502H137.677Z" fill="url(#paint6_linear_450_132)"></path><path d="M146.773 27.1955H141.896L140.997 29.682H139.457L143.499 18.5677H145.183L149.21 29.682H147.67L146.771 27.1955H146.773ZM146.355 26.0083L144.334 20.3632L142.313 26.0083H146.355Z" fill="url(#paint7_linear_450_132)"></path><path d="M152.436 28.4949H156.35V29.682H150.977V18.5041H152.436V28.4949Z" fill="url(#paint8_linear_450_132)"></path><path d="M52.8892 6.93824V29.7774H47.3247V16.0811L42.214 29.7774H37.7226L32.5801 16.0472V29.7774H27.0156V6.93824H33.5895L40.0022 22.7501L46.3492 6.93824H52.8913H52.8892Z" fill="white"></path><path d="M59.6865 29.1923C58.3632 28.6497 57.305 27.8484 56.514 26.7842C55.7209 25.7222 55.3032 24.4418 55.2607 22.9452H61.1836C61.2706 23.791 61.5632 24.4375 62.0615 24.8806C62.5599 25.3257 63.2109 25.5483 64.0146 25.5483C64.8183 25.5483 65.4906 25.3597 65.9677 24.9781C66.4448 24.5986 66.6845 24.0729 66.6845 23.4009C66.6845 22.7289 66.4936 22.3707 66.114 22.0018C65.7344 21.633 65.2679 21.3298 64.7144 21.0903C64.1609 20.8529 63.3742 20.5815 62.3542 20.2763C60.8782 19.8205 59.6737 19.3648 58.7407 18.909C57.8076 18.4532 57.0039 17.7812 56.3317 16.8909C55.6594 16.0027 55.3222 14.841 55.3222 13.4101C55.3222 11.2839 56.092 9.61984 57.6337 8.41577C59.1733 7.2117 61.1815 6.60967 63.6541 6.60967C66.1267 6.60967 68.1986 7.2117 69.7403 8.41577C71.2798 9.61984 72.1047 11.2945 72.2129 13.4419H66.1925C66.148 12.7042 65.8786 12.1234 65.3782 11.7015C64.8798 11.2776 64.2394 11.0677 63.4569 11.0677C62.6744 11.0677 62.2418 11.2458 61.8304 11.604C61.419 11.9623 61.2112 12.4774 61.2112 13.1494C61.2112 13.8214 61.559 14.4616 62.2524 14.8728C62.9458 15.2841 64.0316 15.7292 65.5075 16.2062C66.9835 16.7065 68.1816 17.1813 69.1041 17.6371C70.0265 18.0928 70.8239 18.7542 71.4961 19.6213C72.1684 20.4883 72.5055 21.6054 72.5055 22.9727C72.5055 24.34 72.1747 25.4572 71.5131 26.5192C70.8515 27.5813 69.8908 28.4292 68.6333 29.0567C67.3737 29.6863 65.8871 30 64.1737 30C62.4602 30 61.0055 29.7287 59.6822 29.186L59.6865 29.1923Z" fill="white"></path><path d="M18.5272 21.9679C18.0712 22.9219 17.4266 23.649 16.591 24.1471C15.7555 24.6453 14.8055 24.8954 13.7431 24.8954C12.0296 24.8954 10.6406 24.2997 9.57606 23.1063C8.51364 21.9128 7.98136 20.3187 7.98136 18.3239C7.98136 16.3291 8.51364 14.735 9.57606 13.5415C10.6385 12.3481 12.0275 11.7524 13.7431 11.7524C15.4586 11.7524 14.8437 11.8457 15.3484 11.9919C15.5922 12.0958 20.0158 13.9634 22.2637 15.0996L24.573 10.3512L18.9131 7.7247C17.4011 7.02939 15.7004 6.6775 13.8088 6.6775C11.9172 6.6775 9.61635 7.17142 7.86897 8.15715C6.12159 9.145 4.76016 10.5208 3.78468 12.2887C2.8092 14.0567 2.31934 16.0684 2.31934 18.3239C2.31934 20.5794 2.80708 22.5869 3.78468 24.3421C4.76016 26.0995 6.12159 27.471 7.86897 28.4589C9.61635 29.4467 11.5949 29.9385 13.8088 29.9385C16.0227 29.9385 18.8431 29.2284 20.7729 27.8081C22.7048 26.3878 23.9941 24.4418 24.6451 21.9679H18.5272Z" fill="white"></path><path opacity="0.7" d="M2.16938 0L24.5736 10.3533L22.2622 15.0996L0 4.67213L2.16938 0Z" fill="url(#paint9_linear_450_132)"></path><defs><linearGradient id="paint0_linear_450_132" x1="81.5884" y1="29.6799" x2="81.5884" y2="18.502" gradientUnits="userSpaceOnUse"><stop stop-color="#A1491D"></stop><stop offset="0.1" stop-color="#BF5E2E"></stop><stop offset="0.3" stop-color="#D76E3C"></stop><stop offset="0.4" stop-color="#ED7D48"></stop><stop offset="0.5" stop-color="#FF9159"></stop><stop offset="0.6" stop-color="#EE7E49"></stop><stop offset="0.7" stop-color="#DA703D"></stop><stop offset="0.9" stop-color="#BC5C2C"></stop><stop offset="1" stop-color="#A1491D"></stop></linearGradient><linearGradient id="paint1_linear_450_132" x1="87.2441" y1="-6.22384" x2="87.2441" y2="-6.22384" gradientUnits="userSpaceOnUse"><stop stop-color="#A1491D"></stop><stop offset="0.1" stop-color="#BF5E2E"></stop><stop offset="0.3" stop-color="#D76E3C"></stop><stop offset="0.4" stop-color="#ED7D48"></stop><stop offset="0.5" stop-color="#FF9159"></stop><stop offset="0.6" stop-color="#EE7E49"></stop><stop offset="0.7" stop-color="#DA703D"></stop><stop offset="0.9" stop-color="#BC5C2C"></stop><stop offset="1" stop-color="#A1491D"></stop></linearGradient><linearGradient id="paint2_linear_450_132" x1="94.8558" y1="-6.22385" x2="94.8558" y2="18.4871" gradientUnits="userSpaceOnUse"><stop stop-color="#A1491D"></stop><stop offset="0.1" stop-color="#BF5E2E"></stop><stop offset="0.3" stop-color="#D76E3C"></stop><stop offset="0.4" stop-color="#ED7D48"></stop><stop offset="0.5" stop-color="#FF9159"></stop><stop offset="0.6" stop-color="#EE7E49"></stop><stop offset="0.7" stop-color="#DA703D"></stop><stop offset="0.9" stop-color="#BC5C2C"></stop><stop offset="1" stop-color="#A1491D"></stop></linearGradient><linearGradient id="paint3_linear_450_132" x1="105.911" y1="-6.22386" x2="105.911" y2="18.5677" gradientUnits="userSpaceOnUse"><stop stop-color="#A1491D"></stop><stop offset="0.1" stop-color="#BF5E2E"></stop><stop offset="0.3" stop-color="#D76E3C"></stop><stop offset="0.4" stop-color="#ED7D48"></stop><stop offset="0.5" stop-color="#FF9159"></stop><stop offset="0.6" stop-color="#EE7E49"></stop><stop offset="0.7" stop-color="#DA703D"></stop><stop offset="0.9" stop-color="#BC5C2C"></stop><stop offset="1" stop-color="#A1491D"></stop></linearGradient><linearGradient id="paint4_linear_450_132" x1="116.948" y1="-6.22385" x2="116.948" y2="18.4871" gradientUnits="userSpaceOnUse"><stop stop-color="#A1491D"></stop><stop offset="0.1" stop-color="#BF5E2E"></stop><stop offset="0.3" stop-color="#D76E3C"></stop><stop offset="0.4" stop-color="#ED7D48"></stop><stop offset="0.5" stop-color="#FF9159"></stop><stop offset="0.6" stop-color="#EE7E49"></stop><stop offset="0.7" stop-color="#DA703D"></stop><stop offset="0.9" stop-color="#BC5C2C"></stop><stop offset="1" stop-color="#A1491D"></stop></linearGradient><linearGradient id="paint5_linear_450_132" x1="128.667" y1="29.7774" x2="128.667" y2="18.3578" gradientUnits="userSpaceOnUse"><stop stop-color="#A1491D"></stop><stop offset="0.1" stop-color="#BF5E2E"></stop><stop offset="0.3" stop-color="#D76E3C"></stop><stop offset="0.4" stop-color="#ED7D48"></stop><stop offset="0.5" stop-color="#FF9159"></stop><stop offset="0.6" stop-color="#EE7E49"></stop><stop offset="0.7" stop-color="#DA703D"></stop><stop offset="0.9" stop-color="#BC5C2C"></stop><stop offset="1" stop-color="#A1491D"></stop></linearGradient><linearGradient id="paint6_linear_450_132" x1="136.947" y1="-6.22384" x2="136.947" y2="-6.22384" gradientUnits="userSpaceOnUse"><stop stop-color="#A1491D"></stop><stop offset="0.1" stop-color="#BF5E2E"></stop><stop offset="0.3" stop-color="#D76E3C"></stop><stop offset="0.4" stop-color="#ED7D48"></stop><stop offset="0.5" stop-color="#FF9159"></stop><stop offset="0.6" stop-color="#EE7E49"></stop><stop offset="0.7" stop-color="#DA703D"></stop><stop offset="0.9" stop-color="#BC5C2C"></stop><stop offset="1" stop-color="#A1491D"></stop></linearGradient><linearGradient id="paint7_linear_450_132" x1="144.334" y1="-6.22386" x2="144.334" y2="18.5677" gradientUnits="userSpaceOnUse"><stop stop-color="#A1491D"></stop><stop offset="0.1" stop-color="#BF5E2E"></stop><stop offset="0.3" stop-color="#D76E3C"></stop><stop offset="0.4" stop-color="#ED7D48"></stop><stop offset="0.5" stop-color="#FF9159"></stop><stop offset="0.6" stop-color="#EE7E49"></stop><stop offset="0.7" stop-color="#DA703D"></stop><stop offset="0.9" stop-color="#BC5C2C"></stop><stop offset="1" stop-color="#A1491D"></stop></linearGradient><linearGradient id="paint8_linear_450_132" x1="153.663" y1="-6.22385" x2="153.663" y2="-6.22385" gradientUnits="userSpaceOnUse"><stop stop-color="#A1491D"></stop><stop offset="0.1" stop-color="#BF5E2E"></stop><stop offset="0.3" stop-color="#D76E3C"></stop><stop offset="0.4" stop-color="#ED7D48"></stop><stop offset="0.5" stop-color="#FF9159"></stop><stop offset="0.6" stop-color="#EE7E49"></stop><stop offset="0.7" stop-color="#DA703D"></stop><stop offset="0.9" stop-color="#BC5C2C"></stop><stop offset="1" stop-color="#A1491D"></stop></linearGradient><linearGradient id="paint9_linear_450_132" x1="0" y1="7.55088" x2="24.5736" y2="7.55088" gradientUnits="userSpaceOnUse"><stop stop-color="#A1491D"></stop><stop offset="0.1" stop-color="#BF5E2E"></stop><stop offset="0.3" stop-color="#D76E3C"></stop><stop offset="0.4" stop-color="#ED7D48"></stop><stop offset="0.5" stop-color="#FF9159"></stop><stop offset="0.6" stop-color="#EE7E49"></stop><stop offset="0.7" stop-color="#DA703D"></stop><stop offset="0.9" stop-color="#BC5C2C"></stop><stop offset="1" stop-color="#A1491D"></stop></linearGradient></defs></svg>
